<svg fill="#fff" height="512" viewBox="0 0 24 24" width="512" xmlns="http://www.w3.org/2000/svg"><path d="M21.25 22h-1.81a.75.75 0 010-1.5h1.81c.689 0 1.25-.561 1.25-1.25V2.75c0-.689-.561-1.25-1.25-1.25H2.75c-.689 0-1.25.561-1.25 1.25v16.5c0 .689.561 1.25 1.25 1.25h1.81a.75.75 0 010 1.5H2.75A2.752 2.752 0 010 19.25V2.75A2.752 2.752 0 012.75 0h18.5A2.752 2.752 0 0124 2.75v16.5A2.752 2.752 0 0121.25 22z"/><path d="M23.25 5H.75a.75.75 0 010-1.5h22.5a.75.75 0 010 1.5zM12 24c-.1 0-.199-.02-.293-.06C11.474 23.841 6 21.458 6 16.554v-4.018a.75.75 0 01.509-.71l5.25-1.786a.737.737 0 01.482 0l5.25 1.786a.748.748 0 01.509.71v4.018c0 4.904-5.474 7.288-5.707 7.387A.763.763 0 0112 24zM7.5 13.073v3.481c0 3.348 3.455 5.341 4.499 5.866 1.042-.528 4.501-2.531 4.501-5.866v-3.481L12 11.542z"/><path d="M11.75 19.5a.749.749 0 01-.53-.22l-2-2a.75.75 0 111.061-1.061l1.389 1.389 2.48-3.308a.75.75 0 111.199.9l-3 4a.746.746 0 01-.547.298c-.017.002-.034.002-.052.002z"/></svg>