<svg fill="#fff" height="512" width="512" xmlns="http://www.w3.org/2000/svg"><path d="M456.979 108.527V80.805c0-3.316-1.389-6.35-3.572-8.532-2.211-2.211-5.216-3.571-8.532-3.571h-24.888c-3.346 0-6.35 1.36-8.561 3.571a12.066 12.066 0 00-3.544 8.532v27.723h49.097zM143.463 243.314c-2.919-2.947-2.919-7.682 0-10.602a7.462 7.462 0 0110.602 0l6.832 6.832 18.964-18.992c2.92-2.92 7.682-2.92 10.602 0a7.494 7.494 0 010 10.63l-24.264 24.265c-2.921 2.92-7.683 2.92-10.603 0zm281.456-86.541a7.507 7.507 0 017.512-7.512c4.139 0 7.483 3.373 7.483 7.512v157.408c0 4.138-3.345 7.512-7.483 7.512a7.507 7.507 0 01-7.512-7.512zM306.684 410.531h46.149v-32.174h-46.149zm53.632 14.995H115.711c-4.139 0-7.512-3.374-7.512-7.513v-47.168c0-4.139 3.373-7.483 7.512-7.483h53.661v-42.747a7.475 7.475 0 017.483-7.482h61.172a7.476 7.476 0 017.484 7.482v13.323h53.66c4.139 0 7.512 3.373 7.512 7.512v21.912h53.632c4.139 0 7.512 3.345 7.512 7.483v47.168c.001 4.139-3.372 7.513-7.511 7.513zm-114.804-14.995h46.149v-61.569h-46.149zm-61.144 0h46.148v-82.403h-46.148zm-61.173 0h46.178v-32.174h-46.178zM91.56 149.262h301.299V80.805c0-7.455 3.061-14.229 7.965-19.134 4.904-4.904 11.679-7.966 19.163-7.966h24.888c7.455 0 14.23 3.062 19.134 7.966s7.965 11.679 7.965 19.134v68.457h32.542c4.139 0 7.483 3.373 7.483 7.512V450.81a7.476 7.476 0 01-7.483 7.484h-207.64c-4.139 0-7.483-3.346-7.483-7.484s3.345-7.512 7.483-7.512h200.129V164.257h-25.03v54.227c0 4.139-3.374 7.512-7.512 7.512-4.139 0-7.484-3.373-7.484-7.512v-94.96h-49.097v223.908h49.097v-94.961c0-4.139 3.345-7.512 7.484-7.512 4.138 0 7.512 3.373 7.512 7.512v102.444c0 1.814-.482 2.722-1.276 4.252l-31.578 62.192a7.625 7.625 0 01-3.345 3.345c-3.685 1.871-8.164.368-10.035-3.316l-31.692-62.362c-.737-1.502-1.19-2.352-1.19-4.11V164.257H91.56v56.749c0 4.139-3.345 7.513-7.484 7.513s-7.512-3.374-7.512-7.513V74.767c-6.435-4.024-13.691-6.065-21.288-6.065-11.112 0-21.175 4.507-28.489 11.792-7.285 7.313-11.793 17.376-11.793 28.488v256.195c.397-.426.794-.851 1.19-1.247 10.007-10.007 23.84-16.186 39.091-16.186 6.095 0 11.991 1.021 17.575 2.863 1.248.425 2.495.907 3.713 1.417v-97.029c0-4.139 3.373-7.512 7.512-7.512s7.484 3.373 7.484 7.512v109.899c0 1.559-.51 3.146-1.531 4.508-2.466 3.288-7.172 3.939-10.488 1.445a39.272 39.272 0 00-11.452-6.038 40.197 40.197 0 00-12.812-2.069c-11.112 0-21.175 4.508-28.489 11.793a40.19 40.19 0 00-11.793 28.487c0 11.141 4.507 21.203 11.793 28.488C34.1 438.793 44.163 443.3 55.276 443.3h207.64c4.139 0 7.483 3.374 7.483 7.512a7.476 7.476 0 01-7.483 7.484H55.276c-15.251 0-29.084-6.18-39.091-16.186C6.179 432.103 0 418.298 0 403.019V108.981c0-15.251 6.179-29.084 16.185-39.09 10.007-10.007 23.84-16.187 39.091-16.187 11.82 0 23.442 3.855 32.938 10.886 2.013 1.36 3.345 3.656 3.345 6.265v78.407zm360.713 213.165H412.56l19.871 39.09zM352.039 194.701c4.139 0 7.483 3.373 7.483 7.512s-3.345 7.483-7.483 7.483h-101.51a7.476 7.476 0 01-7.483-7.483c0-4.139 3.345-7.512 7.483-7.512zm-42.208 71.603c4.167 0 7.512 3.345 7.512 7.483s-3.345 7.512-7.512 7.512H250.53c-4.139 0-7.483-3.373-7.483-7.512s3.345-7.483 7.483-7.483zm42.208-35.802c4.139 0 7.483 3.346 7.483 7.512a7.476 7.476 0 01-7.483 7.484h-101.51a7.476 7.476 0 01-7.483-7.484c0-4.166 3.345-7.512 7.483-7.512zm-228.022-42.973h85.919c4.139 0 7.483 3.373 7.483 7.512v85.918c0 4.139-3.345 7.512-7.483 7.512h-85.919a7.507 7.507 0 01-7.512-7.512v-85.918a7.507 7.507 0 017.512-7.512zm78.408 15.024h-70.924v70.923h70.924z"/></svg>